<?xml version="1.0" encoding="utf-8"?>
<!-- Generator: Adobe Illustrator 25.0.0, SVG Export Plug-In . SVG Version: 6.00 Build 0)  -->
<svg version="1.1" id="katman_1" xmlns="http://www.w3.org/2000/svg" xmlns:xlink="http://www.w3.org/1999/xlink" x="0px" y="0px"
	 viewBox="0 0 560 400" style="enable-background:new 0 0 560 400;" xml:space="preserve">
<style type="text/css">
	.st0{fill-rule:evenodd;clip-rule:evenodd;fill:#252133;}
	.st1{fill:url(#SVGID_1_);}
</style>
<g transform="matrix(.631903 0 0 .631903 99.999981 153.061012)">
	<path class="st0" d="M515.5,12.1V119c-0.1,1.7,0.6,3.4,1.8,4.7c1.2,1.3,2.9,2,4.6,2h1.9c1.8,0,3.5-0.7,4.7-2c1.2-1.3,1.9-3,1.9-4.7
		l0-106.9h12.4v109.7c0,8.3-6.6,15-14.9,15.2h-9.5c-4.1,0-8-1.5-10.9-4.4c-2.9-2.9-4.5-6.7-4.5-10.8V12.1L515.5,12.1z M603.7,10.9
		c8.3,0.2,15,8,15,16.4v9.9c0,1.4-0.9,2.6-2.3,3l-10.3,2.9V28.9c0-3.6-3-6.6-6.6-6.6c-3.6,0-6.6,2.9-6.6,6.6v11.8
		c0,7.3,5.4,16.6,5.4,16.6l14.8,28.5c6,11.3,5.5,19.6,5.5,19.6v15.8c0,4.1-1.6,8.1-4.5,11.1c-2.9,3-6.9,4.6-11.1,4.7h-7.8
		c-8.4-0.5-15-7.4-15-15.8v-17.7c0-1.4,0.9-2.6,2.3-3l10.3-2.9v21.6c0,3.6,3,6.5,6.7,6.5c3.6,0,6.6-3,6.5-6.7v-14.1
		c0-7.2-5.4-16.8-5.4-16.8L586,59.6c-6-11.3-5.5-19.6-5.5-19.6V27.3c0-8.6,6.9-16.4,15.6-16.4L603.7,10.9z M369.6,10.9
		c8.4,0.4,15,7.4,15,15.8v94.9c-0.1,8.3-6.7,15.1-15,15.5h-9.5c-8.5-0.1-15.4-7-15.5-15.5V26.6c0-4.1,1.6-8.1,4.5-11.1
		s6.9-4.6,11.1-4.7L369.6,10.9z M227.1,12.1l-3,10.4c-0.4,1.4-1.6,2.3-3,2.3h-19.9v39.8h20.6l-3,10.4c-0.4,1.3-1.6,2.3-3,2.3h-14.6
		v45.9h25.9l-2.9,10.3c-0.4,1.4-1.6,2.3-3,2.3h-32.4V12.1H227.1z M448.2,12.1c8.6,0.1,15.4,7,15.4,15.5v92.6
		c0,8.5-6.9,15.5-15.4,15.5h-24V12.1H448.2z M284.8,51.9l11.4-39.8h12.7L291.2,74l17.8,61.9h-12.7L284.8,96l-11.4,39.8h-12.7
		L278.4,74l-17.8-61.9h12.7L284.8,51.9z M365.4,125.9c1.8,0,3.5-0.8,4.7-2.1c1.2-1.3,1.9-3,1.8-4.8V28.9c0.1-1.8-0.6-3.5-1.8-4.8
		c-1.2-1.3-2.9-2-4.7-2.1h-1.9c-3.7,0.2-6.6,3.2-6.6,6.9V119c0,3.7,2.9,6.7,6.6,6.9H365.4z M444.7,123.3c3.5,0,6.6-1.8,6.6-6.6V31.2
		c0-4.6-3.1-6.4-6.6-6.4h-8.1v98.5L444.7,123.3z"/>
	
		<linearGradient id="SVGID_1_" gradientUnits="userSpaceOnUse" x1="58.1837" y1="-91.4199" x2="232.2914" y2="-91.4199" gradientTransform="matrix(0.6319 0 0 -0.6319 -85.8243 16.513)">
		<stop  offset="0" style="stop-color:#00BFFF"/>
		<stop  offset="1" style="stop-color:#6619FF"/>
	</linearGradient>
	<path class="st1" d="M73,74.3l52,52h-18.4c-3.1,0-6.2-1.3-8.4-3.5L49.9,74.3l48.5-48.6c2.2-2.2,5.2-3.5,8.4-3.4H125L73,74.3z
		 M-22.3,25.7c-2.2-2.2-5.2-3.5-8.4-3.4h-18.3l52,52l-52,52h18.4c3.1,0,6.2-1.3,8.4-3.5l48.4-48.6L-22.3,25.7z M38,86.2l-48.6,48.5
		c-2.2,2.2-3.4,5.2-3.4,8.4v18.3l52-52l52,52V143c0-3.1-1.2-6.2-3.4-8.4L38,86.2z M38,62.4l48.6-48.5c2.2-2.2,3.4-5.2,3.4-8.4v-18.3
		l-52,52l-52-52V5.5c0,3.1,1.2,6.2,3.4,8.4L38,62.4z"/>
</g>
</svg>
