<svg width="57" height="49" viewBox="0 0 57 49" fill="none" xmlns="http://www.w3.org/2000/svg">
<path d="M45.6407 26.0404L45.6459 26.0755C46.1694 24.3411 46.499 20.7293 47.8126 18.2745C49.2886 15.5161 54.1923 13.2678 56.8332 12.9304C55.0602 12.1975 50.2531 10.612 48.8511 9.34515C47.327 7.968 45.8524 3.03104 45.3122 0.215093C44.7122 2.52571 44.6433 5.4011 42.3006 9.32544C41.1984 11.1718 36.2576 12.8408 34.039 13.3618C36.1842 13.6565 40.4802 14.6769 42.7822 17.3637C44.6845 19.5839 45.3615 24.1552 45.6407 26.0404Z" fill="#EE972C"/>
<path d="M25.9024 15.446C25.7603 13.8835 25.1282 12.669 24.0061 11.8026C22.8981 10.9219 21.3143 10.4815 19.2546 10.4815C17.891 10.4815 16.7546 10.6591 15.8455 11.0142C14.9365 11.3693 14.2546 11.8594 13.8001 12.4844C13.3455 13.0952 13.1112 13.7983 13.097 14.5938C13.0686 15.2472 13.1964 15.8224 13.4805 16.3196C13.7788 16.8168 14.2049 17.2571 14.7589 17.6406C15.3271 18.0099 16.0089 18.3366 16.8044 18.6207C17.5998 18.9048 18.4947 19.1534 19.489 19.3665L23.239 20.2188C25.3981 20.6875 27.3015 21.3125 28.9492 22.0938C30.6112 22.875 32.0032 23.8054 33.1254 24.8849C34.2617 25.9645 35.1211 27.2074 35.7035 28.6136C36.2859 30.0199 36.5842 31.5966 36.5984 33.3438C36.5842 36.0994 35.8882 38.4645 34.5103 40.4389C33.1325 42.4134 31.1509 43.9261 28.5657 44.9773C25.9947 46.0284 22.891 46.554 19.2546 46.554C15.6041 46.554 12.4222 46.0071 9.70918 44.9134C6.99611 43.8196 4.88674 42.1577 3.38106 39.9276C1.87537 37.6974 1.10123 34.8778 1.05861 31.4688H11.158C11.2433 32.875 11.6197 34.0469 12.2873 34.9844C12.9549 35.9219 13.8711 36.6321 15.0359 37.1151C16.2149 37.598 17.5785 37.8395 19.1268 37.8395C20.5473 37.8395 21.7546 37.6477 22.749 37.2642C23.7575 36.8807 24.5316 36.348 25.0714 35.6662C25.6112 34.9844 25.8882 34.2031 25.9024 33.3224C25.8882 32.4986 25.6325 31.7955 25.1353 31.2131C24.6382 30.6165 23.8711 30.1051 22.8342 29.679C21.8115 29.2386 20.5046 28.8338 18.9137 28.4645L14.3541 27.3991C10.5757 26.5327 7.59981 25.1335 5.42651 23.2017C3.25322 21.2557 2.17367 18.6278 2.18787 15.3182C2.17367 12.6193 2.8981 10.2543 4.36117 8.22301C5.82424 6.19176 7.84839 4.60795 10.4336 3.47159C13.0188 2.33523 15.9663 1.76704 19.2759 1.76704C22.6566 1.76704 25.5899 2.34233 28.0757 3.4929C30.5757 4.62926 32.5146 6.22727 33.8924 8.28693C35.2703 10.3466 35.9734 12.733 36.0018 15.446H25.9024Z" fill="white"/>
</svg>
