<svg width="1672" height="682" viewBox="0 0 1672 682" fill="none" xmlns="http://www.w3.org/2000/svg">
<rect opacity="0.54" x="1562" y="377" width="108" height="303" rx="51" stroke="white" stroke-width="4"/>
<path d="M157.68 588.951L157.655 588.984C159.596 588.09 162.937 585.493 166.212 584.778C169.892 583.975 176.303 586.888 179.021 589.162C178.003 586.862 174.906 580.948 174.679 578.574C174.432 575.993 177.224 570.588 179.094 567.795C176.598 569.081 174.117 571.335 168.657 572.243C166.088 572.67 160.13 569.254 157.647 567.536C159.377 569.841 162.479 574.806 162.341 579.194C162.228 582.819 159.007 587.161 157.68 588.951Z" fill="#50D0EB"/>
<path d="M1144.53 47.2078L1144.51 47.246C1146.19 45.9221 1148.83 42.616 1151.85 41.1554C1155.24 39.5142 1162.15 40.8474 1165.33 42.4225C1163.8 40.4237 1159.4 35.3983 1158.63 33.1434C1157.78 30.6921 1159.24 24.7835 1160.4 21.6306C1158.27 23.4647 1156.39 26.2364 1151.29 28.3961C1148.9 29.4122 1142.3 27.4838 1139.49 26.3936C1141.71 28.2312 1145.89 32.3331 1146.78 36.631C1147.51 40.1824 1145.4 45.1566 1144.53 47.2078Z" fill="#50D0EB"/>
<path d="M195.371 328.5C195.371 336.545 188.984 343 181.186 343C173.387 343 167 336.545 167 328.5C167 320.455 173.387 314 181.186 314C188.984 314 195.371 320.455 195.371 328.5Z" stroke="white" stroke-width="4"/>
<path d="M1518.02 60.981L1518.03 61C1518.36 60.0667 1518.59 58.1152 1519.42 56.8C1520.35 55.3222 1523.38 54.1555 1525 54C1523.92 53.5852 1520.98 52.6778 1520.13 51.9778C1519.2 51.2168 1518.34 48.5296 1518.03 47C1517.64 48.2444 1517.57 49.8 1516.1 51.9C1515.41 52.888 1512.37 53.7407 1511 54C1512.31 54.1815 1514.94 54.7778 1516.34 56.2555C1517.49 57.4767 1517.87 59.9578 1518.02 60.981Z" fill="#50D0EB"/>
<path d="M1319.15 287.683L1319.16 287.757C1320.42 284.088 1321.22 276.446 1324.39 271.255C1327.96 265.422 1339.83 260.675 1346.23 259.967C1341.93 258.412 1330.29 255.047 1326.89 252.363C1323.2 249.446 1319.62 238.996 1318.3 233.037C1316.86 237.924 1316.69 244.008 1311.03 252.307C1308.36 256.211 1296.4 259.732 1291.03 260.83C1296.22 261.458 1306.63 263.627 1312.21 269.317C1316.82 274.019 1318.47 283.693 1319.15 287.683Z" fill="#50D0EB"/>
<path d="M0.0951965 35.4238L0 35.4385C4.66667 37.129 14.424 38.2942 21 42.4605C28.3889 47.1419 34.2223 62.4182 35 70.6106C37.0741 65.149 41.6111 50.3247 45.1111 46.0334C48.916 41.3684 62.3519 36.9989 70 35.4385C63.7778 33.4879 56 33.1597 45.5 25.7475C40.5599 22.2602 36.2963 6.89201 35 0C34.0926 6.63194 31.1111 19.8958 23.7223 26.9179C17.6167 32.7204 5.21109 34.6345 0.0951965 35.4238Z" fill="#50D0EB"/>
</svg>
