<svg width="178" height="161" viewBox="0 0 178 161" fill="none" xmlns="http://www.w3.org/2000/svg">
<path d="M25 27H133C144.046 27 153 35.9543 153 47V133H45C33.9543 133 25 124.046 25 113V27Z" fill="url(#paint0_linear_172_17)"/>
<path d="M57.2848 74.7998L26.7953 116.719C26.0244 117.779 26.0307 119.216 26.8107 120.269L34.6005 130.786C35.1663 131.55 36.0606 132 37.0112 132H113.614C116.306 132 117.636 128.727 115.706 126.85L61.8028 74.414C60.4935 73.1403 58.3593 73.3225 57.2848 74.7998Z" fill="url(#paint1_linear_172_17)"/>
<path d="M133.457 52.4852L94.8938 90.1719C93.301 91.7286 93.2863 94.2863 94.8611 95.8611L130 131H145C147.209 131 149 129.209 149 127V62.411C149 61.2024 148.454 60.0586 147.513 59.2992L138.766 52.2342C137.189 50.96 134.907 51.0679 133.457 52.4852Z" fill="url(#paint2_linear_172_17)"/>
<circle cx="86.5" cy="60.5" r="12.5" fill="url(#paint3_linear_172_17)"/>
<path d="M151 160.5C151 160.5 151 77 151 43C151 37 146.201 29 139 29C123 29 1.52588e-05 29 1.52588e-05 29" stroke="#83827A" stroke-width="4"/>
<path d="M151 160.5C151 160.5 151 77 151 43C151 37 146.201 29 139 29C123 29 1.52588e-05 29 1.52588e-05 29" stroke="#83827A" stroke-width="4"/>
<path d="M27 1C27 1 27 84.5 27 118.5C27 124.5 31.7991 132.5 39 132.5C55 132.5 178 132.5 178 132.5" stroke="#83827A" stroke-width="4"/>
<path d="M27 1C27 1 27 84.5 27 118.5C27 124.5 31.7991 132.5 39 132.5C55 132.5 178 132.5 178 132.5" stroke="#83827A" stroke-width="4"/>
<defs>
<linearGradient id="paint0_linear_172_17" x1="116" y1="56" x2="138.5" y2="207" gradientUnits="userSpaceOnUse">
<stop offset="0.0799994" stop-color="#504E53"/>
<stop offset="1" stop-color="#B2AEB9"/>
</linearGradient>
<linearGradient id="paint1_linear_172_17" x1="41.5" y1="91" x2="105.5" y2="136.5" gradientUnits="userSpaceOnUse">
<stop stop-color="#A7A7A7"/>
<stop offset="1" stop-color="#676963"/>
</linearGradient>
<linearGradient id="paint2_linear_172_17" x1="97.5" y1="67" x2="142.5" y2="129.5" gradientUnits="userSpaceOnUse">
<stop stop-color="#A3A3A2"/>
<stop offset="1" stop-color="#676963"/>
</linearGradient>
<linearGradient id="paint3_linear_172_17" x1="86.5" y1="48" x2="86.5" y2="73" gradientUnits="userSpaceOnUse">
<stop stop-color="#FE9850"/>
<stop offset="1" stop-color="#FE6C37"/>
</linearGradient>
</defs>
</svg>
