<svg width="1761" height="1687" viewBox="0 0 1761 1687" fill="none" xmlns="http://www.w3.org/2000/svg">
<path d="M284.371 328.5C284.371 336.545 277.984 343 270.186 343C262.387 343 256 336.545 256 328.5C256 320.455 262.387 314 270.186 314C277.984 314 284.371 320.455 284.371 328.5Z" stroke="white" stroke-width="4"/>
<path d="M1501 1585C1501 1597.27 1491.7 1607 1480.5 1607C1469.3 1607 1460 1597.27 1460 1585C1460 1572.73 1469.3 1563 1480.5 1563C1491.7 1563 1501 1572.73 1501 1585Z" stroke="white" stroke-width="4"/>
<path d="M1607 823.5C1607 850.75 1583.81 873 1555 873C1526.19 873 1503 850.75 1503 823.5C1503 796.25 1526.19 774 1555 774C1583.81 774 1607 796.25 1607 823.5Z" stroke="white" stroke-width="4"/>
<rect opacity="0.54" x="1651" y="377" width="108" height="303" rx="51" stroke="white" stroke-width="4"/>
<rect opacity="0.54" x="2" y="1110" width="150" height="467" rx="73" stroke="white" stroke-width="4"/>
<rect opacity="0.54" x="259" y="1353" width="99" height="43" rx="21.5" stroke="white" stroke-width="4"/>
<path d="M246.68 588.951L246.655 588.984C248.596 588.09 251.937 585.493 255.212 584.778C258.892 583.975 265.303 586.888 268.021 589.162C267.003 586.862 263.906 580.948 263.679 578.574C263.432 575.993 266.224 570.588 268.094 567.795C265.598 569.081 263.117 571.335 257.657 572.243C255.088 572.67 249.13 569.254 246.647 567.536C248.377 569.841 251.479 574.806 251.341 579.194C251.228 582.819 248.007 587.161 246.68 588.951Z" fill="#50D0EB"/>
<path d="M1233.53 47.2078L1233.51 47.246C1235.19 45.9221 1237.83 42.616 1240.85 41.1554C1244.24 39.5142 1251.15 40.8474 1254.33 42.4225C1252.8 40.4237 1248.4 35.3983 1247.63 33.1434C1246.78 30.6921 1248.24 24.7835 1249.4 21.6306C1247.27 23.4647 1245.39 26.2364 1240.29 28.3961C1237.9 29.4122 1231.3 27.4838 1228.49 26.3936C1230.71 28.2312 1234.89 32.3331 1235.78 36.631C1236.51 40.1824 1234.4 45.1566 1233.53 47.2078Z" fill="#50D0EB"/>
<path d="M1607.02 60.981L1607.03 61C1607.36 60.0667 1607.59 58.1152 1608.42 56.8C1609.35 55.3222 1612.38 54.1555 1614 54C1612.92 53.5852 1609.98 52.6778 1609.13 51.9778C1608.2 51.2168 1607.34 48.5296 1607.03 47C1606.64 48.2444 1606.57 49.8 1605.1 51.9C1604.41 52.888 1601.37 53.7407 1600 54C1601.31 54.1815 1603.94 54.7778 1605.34 56.2555C1606.49 57.4767 1606.87 59.9578 1607.02 60.981Z" fill="#50D0EB"/>
<path d="M1408.15 287.683L1408.16 287.757C1409.42 284.088 1410.22 276.446 1413.39 271.255C1416.96 265.422 1428.83 260.675 1435.23 259.967C1430.93 258.412 1419.29 255.047 1415.89 252.363C1412.2 249.446 1408.62 238.996 1407.3 233.037C1405.86 237.924 1405.69 244.008 1400.03 252.307C1397.36 256.211 1385.4 259.732 1380.03 260.83C1385.22 261.458 1395.63 263.627 1401.21 269.317C1405.82 274.019 1407.47 283.693 1408.15 287.683Z" fill="#50D0EB"/>
<path d="M386.148 1632.16L386 1632.18C393.267 1634.82 408.46 1636.63 418.7 1643.12C430.206 1650.41 439.289 1674.19 440.5 1686.95C443.73 1678.45 450.794 1655.36 456.244 1648.68C462.169 1641.42 483.091 1634.61 495 1632.18C485.311 1629.15 473.2 1628.63 456.85 1617.09C449.158 1611.66 442.519 1587.73 440.5 1577C439.087 1587.33 434.444 1607.98 422.939 1618.91C413.432 1627.95 394.114 1630.93 386.148 1632.16Z" fill="white"/>
<path d="M89.0952 35.4238L89 35.4385C93.6667 37.129 103.424 38.2942 110 42.4605C117.389 47.1419 123.222 62.4182 124 70.6106C126.074 65.149 130.611 50.3247 134.111 46.0334C137.916 41.3684 151.352 36.9989 159 35.4385C152.778 33.4879 145 33.1597 134.5 25.7475C129.56 22.2602 125.296 6.89201 124 0C123.093 6.63194 120.111 19.8958 112.722 26.9179C106.617 32.7204 94.2111 34.6345 89.0952 35.4238Z" fill="#50D0EB"/>
</svg>
