<svg width="112" height="27" viewBox="0 0 112 27" fill="none" xmlns="http://www.w3.org/2000/svg">
<path d="M3.07657 0L7.17188 6.85947L0 13.7054H12.4014L13.5695 10.9616H6.72364L10.7986 6.84589L8.38078 2.75058H19.6683L9.75267 26.1543H13.1485L24.2187 0.00679187H3.07657" fill="white"/>
<path d="M100.923 13.8819C99.7272 13.7189 99.0209 13.488 99.0209 12.707C99.0209 11.9939 99.7204 11.5524 100.583 11.5524C101.282 11.5524 102.172 11.8241 102.736 12.2451L103.415 11.1381C102.715 10.5608 101.581 10.2552 100.535 10.2552C98.7356 10.2552 97.3977 11.3419 97.3977 12.7681C97.3977 14.3981 98.4504 14.9278 100.23 15.2131C101.235 15.376 102.104 15.4847 102.104 16.3404C102.104 17.0536 101.405 17.4475 100.474 17.4475C99.5438 17.4475 98.7424 17.1962 97.9478 16.5646L97.2686 17.787C97.8527 18.3168 99.0684 18.7379 100.427 18.7379C102.301 18.7379 103.653 17.6512 103.653 16.2046C103.653 14.4592 102.247 14.0653 100.848 13.8819M58.061 13.8819C56.8657 13.7189 56.1594 13.488 56.1594 12.707C56.1594 11.9939 56.8589 11.5524 57.7214 11.5524C58.4209 11.5524 59.3106 11.8241 59.8743 12.2451L60.5535 11.1381C59.854 10.5608 58.7198 10.2552 57.6739 10.2552C55.8741 10.2552 54.5362 11.3419 54.5362 12.7681C54.5362 14.3981 55.5889 14.9414 57.3683 15.2131C58.3734 15.376 59.2427 15.4847 59.2427 16.3404C59.2427 17.0536 58.5432 17.4475 57.6128 17.4475C56.6942 17.459 55.8005 17.1491 55.0863 16.5714L54.4071 17.7938C54.9912 18.3236 56.2069 18.7447 57.5652 18.7447C59.4397 18.7447 60.7912 17.658 60.7912 16.2114C60.7912 14.466 59.3853 14.0721 57.9863 13.8887M108.461 17.4067C106.967 17.4067 105.935 16.2318 105.935 14.5271C105.935 12.9379 106.818 11.5796 108.271 11.5796C109.935 11.5796 110.308 12.9583 110.424 13.8208H107.551L107.008 15.0636H111.986L112.006 14.4864C112.006 12.1365 110.811 10.2756 108.237 10.2756C106.016 10.2756 104.298 12.0686 104.298 14.5339C104.298 17.0671 105.928 18.7447 108.278 18.7447C109.684 18.7447 110.926 18.2421 111.674 17.3388L110.736 16.4423C110.057 17.0671 109.33 17.4067 108.441 17.4067M80.3033 10.6152C79.8143 10.4114 79.271 10.3639 78.9722 10.3639C78.1097 10.3639 77.1724 10.7035 76.731 11.3283H76.6631V10.4318H75.1689V18.5952H76.7106V14.1332C76.7106 12.4081 77.6478 11.7154 78.8839 11.7154C79.305 11.7154 79.5834 11.7629 79.957 11.8512L80.3101 10.6084M37.5573 10.5812C37.1326 10.4193 36.6806 10.3409 36.2261 10.3503C35.8172 10.3338 35.4099 10.4123 35.0364 10.5796C34.6628 10.7469 34.3332 10.9985 34.0732 11.3147H34.0053V10.4182H32.5112V18.5952H34.0528V14.1332C34.0528 12.4081 34.895 11.7154 36.1378 11.7154C36.5589 11.7154 36.8374 11.7629 37.2109 11.8512L37.5641 10.588M23.9266 7.66763V9.1414H27.3224V18.5952H28.9524V9.13461H32.3482V7.66084H23.7908M42.8751 15.4372C42.8751 16.6597 41.8699 17.4407 40.4641 17.4407C39.6219 17.4407 38.902 17.0468 38.902 16.0824C38.902 15.1859 39.5812 14.5882 40.8037 14.5882C41.836 14.5882 42.5015 14.7716 42.8887 15.0501L42.8751 15.4372ZM40.7018 10.262C39.7917 10.262 38.9224 10.3978 38.2704 10.6559L38.5285 11.8988C39.2076 11.6679 39.8868 11.5728 40.498 11.5728C41.8088 11.5728 42.8751 12.1704 42.8751 13.5084V13.7393C42.454 13.5763 41.802 13.3725 40.8376 13.3725C38.8001 13.3725 37.3535 14.432 37.3535 16.0892C37.3535 17.8821 38.7119 18.6903 40.2332 18.6903C41.4964 18.6903 42.3589 18.1878 42.814 17.5833H42.8819V18.5341H44.376V13.4269C44.376 11.1857 42.9226 10.2077 40.7086 10.2077L40.7018 10.262ZM50.21 10.262C49.1776 10.262 48.2404 10.6559 47.7786 11.4573H47.7107V10.425H46.2165V18.5952H47.7582V14.1807C47.7582 12.5711 48.5732 11.5999 49.7957 11.5999C51.0181 11.5999 51.7381 12.2451 51.7381 13.7393V18.5952H53.2797V13.4608C53.2797 11.3894 52.0573 10.2688 50.142 10.2688M64.0647 10.2688C64.0647 9.25006 64.5537 8.67957 65.423 8.67957C65.7762 8.67957 66.3331 8.77466 66.7814 8.93086L67.2703 7.80346C66.6765 7.52873 66.0298 7.38733 65.3755 7.38918C63.8134 7.38918 62.4551 8.17021 62.4551 10.262V10.5133H61.4228V11.8716H62.4551V18.6632H63.9968V11.8716H65.5589L66.1022 10.5133H64.0647V10.2688ZM70.1771 17.3931C68.683 17.3931 67.6507 16.2182 67.6507 14.5135C67.6507 12.9243 68.5336 11.566 69.987 11.566C71.6509 11.566 72.0244 12.9447 72.1399 13.8072H69.2671L68.7237 15.0501H73.7019L73.7223 14.4728C73.7223 12.1229 72.527 10.262 69.953 10.262C67.7322 10.262 66.0139 12.055 66.0139 14.5203C66.0139 17.0536 67.6439 18.7311 69.9938 18.7311C71.3996 18.7311 72.6425 18.2285 73.3895 17.3252L72.4523 16.4287C71.7731 17.0536 71.0464 17.3931 70.1568 17.3931M91.6317 7.66084L89.7096 16.1503H89.6417L87.6518 10.4182H86.2731L84.0047 16.1503H83.9368L82.4155 7.66084H80.7516L82.8298 18.5952H84.3715L86.83 12.5508H86.8979L89.0305 18.5952H90.5722L93.2209 7.66084H91.6317ZM94.2124 7.66084H95.8967V9.31798H94.2124V7.66084ZM94.2804 10.425H95.822V18.5952H94.2804V10.425Z" fill="white"/>
</svg>
