<svg width="924" height="186" viewBox="0 0 924 186" fill="none" xmlns="http://www.w3.org/2000/svg">
<path d="M42.3873 93L21.4153 113.954L0.461426 93L21.4153 72.0461L42.3873 93ZM93.2313 42.1198L129.139 78.0459L150.093 57.092L93.2313 0.230103L36.3694 57.092L57.3233 78.0459L93.2313 42.1198ZM165.065 72.0461L144.112 93L165.065 113.954L186.001 93L165.065 72.0461ZM93.2313 143.88L57.3233 107.972L36.3694 128.908L93.2313 185.77L150.093 128.908L129.139 107.972L93.2313 143.88ZM93.2313 113.954L114.185 93L93.2313 72.0461L72.2774 93L93.2313 113.954ZM314.371 115.966V115.676C314.371 102.009 307.121 95.1752 295.32 90.6799C302.571 86.6015 308.698 80.2029 308.698 68.729V68.439C308.698 52.4517 295.9 42.1198 275.11 42.1198H227.909V143.88H276.306C299.272 143.88 314.407 134.582 314.407 115.966H314.371ZM286.457 72.463C286.457 80.0217 280.203 83.23 270.324 83.23H249.715V61.7504H271.811C281.254 61.7504 286.493 65.5207 286.493 72.2093L286.457 72.463ZM292.13 113.174C292.13 120.733 286.167 124.213 276.27 124.213H249.715V101.864H275.581C287.073 101.864 292.166 106.087 292.166 112.921L292.13 113.174ZM361.409 143.88V42.1198H338.95V143.88H361.409ZM481.748 143.88V42.1198H459.58V104.782L411.908 42.1198H391.262V143.88H413.358V79.1878L462.625 143.88H481.748ZM605.75 143.88L562.066 41.3947H541.42L497.826 143.88H520.647L529.982 121.059H573.014L582.313 143.88H605.75ZM565.056 101.284H537.94L551.462 68.294L565.056 101.284ZM712.459 143.88V42.1198H690.29V104.782L642.6 42.1198H621.973V143.88H644.05V79.1878L693.336 143.88H712.459ZM828.013 127.458L813.784 113.066C805.791 120.316 798.667 124.975 787.03 124.975C769.593 124.975 757.52 110.474 757.52 93V92.71C757.52 75.2726 769.883 61.0254 787.03 61.0254C797.199 61.0254 805.156 65.3757 813.059 72.4993L827.252 56.0769C817.808 46.7782 806.334 40.3796 787.139 40.3796C755.889 40.3796 734.083 64.0706 734.083 92.9456V93.2357C734.083 122.455 756.324 145.566 786.269 145.566C805.863 145.62 817.482 138.642 827.941 127.458H828.013ZM923.538 143.88V123.941H868.217V102.534H916.197V82.5956H868.217V62.0405H922.741V42.1016H845.976V143.862L923.538 143.88Z" fill="white"/>
</svg>
