<svg width="422" height="111" viewBox="0 0 422 111" fill="none" xmlns="http://www.w3.org/2000/svg">
<path fill-rule="evenodd" clip-rule="evenodd" d="M356.709 15.7344V83.2848C356.646 84.359 357.088 85.4333 357.847 86.2547C358.605 87.0762 359.679 87.5186 360.754 87.5186H361.954C363.092 87.5186 364.166 87.0762 364.924 86.2547C365.682 85.4333 366.125 84.359 366.125 83.2848V15.7344H373.96V85.0541C373.96 90.2989 369.79 94.5327 364.545 94.6591H358.542C355.951 94.6591 353.487 93.7112 351.654 91.8787C349.822 90.0462 348.811 87.6449 348.811 85.0541V15.7344H356.709ZM412.443 14.9761C417.688 15.1025 421.922 20.0313 421.922 25.3393V31.5951C421.922 32.4798 421.353 33.2381 420.468 33.4909L413.96 35.3234V26.3503C413.96 24.0755 412.064 22.1798 409.789 22.1798C407.514 22.1798 405.619 24.0123 405.619 26.3503V33.8068C405.619 38.4197 409.031 44.2964 409.031 44.2964L418.383 62.3056C422.174 69.4461 421.859 74.6909 421.859 74.6909V84.675C421.859 87.2658 420.847 89.7934 419.015 91.6891C417.182 93.5848 414.655 94.5959 412.001 94.6591H407.072C401.764 94.3431 397.593 89.983 397.593 84.675V73.4903C397.593 72.6056 398.162 71.8474 399.047 71.5946L405.555 69.7621V83.4112C405.555 85.686 407.451 87.5186 409.789 87.5186C412.064 87.5186 413.96 85.6228 413.897 83.2848V74.375C413.897 69.8253 410.484 63.759 410.484 63.759L401.258 45.7498C397.467 38.6093 397.783 33.3645 397.783 33.3645V25.3393C397.783 19.9049 402.143 14.9761 407.641 14.9761H412.443ZM264.515 14.9761C269.823 15.2289 273.993 19.6522 273.993 24.9602V84.9278C273.93 90.1725 269.759 94.4695 264.515 94.7223H258.512C253.14 94.6591 248.78 90.2989 248.717 84.9278V24.897C248.717 22.3062 249.728 19.7786 251.561 17.8828C253.393 15.9871 255.921 14.9761 258.575 14.9129L264.515 14.9761ZM174.468 15.7344L172.573 22.3062C172.32 23.1908 171.562 23.7595 170.677 23.7595H158.102V48.9093H171.119L169.224 55.4811C168.971 56.3025 168.213 56.9345 167.328 56.9345H158.102V85.9388H174.468L172.636 92.4474C172.383 93.3321 171.625 93.9008 170.74 93.9008H150.267V15.7344H174.468ZM314.182 15.7344C319.617 15.7976 323.914 20.1577 323.914 25.5289V84.0431C323.914 89.4143 319.553 93.8376 314.182 93.8376H299.017V15.7344H314.182ZM210.929 40.8841L218.133 15.7344H226.158L214.973 54.8492L226.221 93.964H218.196L210.929 68.751L203.726 93.9008H195.7L206.885 54.8492L195.637 15.7344H203.662L210.929 40.8841ZM261.861 87.6449C262.998 87.6449 264.072 87.1394 264.831 86.3179C265.589 85.4965 266.031 84.4222 265.968 83.2848V26.3503C266.031 25.2129 265.589 24.1387 264.831 23.3172C264.072 22.4957 262.998 22.0534 261.861 21.9902H260.66C258.322 22.1166 256.489 24.0123 256.489 26.3503V83.2848C256.489 85.6228 258.322 87.5186 260.66 87.6449H261.861ZM311.971 86.002C314.182 86.002 316.141 84.8646 316.141 81.8314V27.8037C316.141 24.897 314.182 23.7595 311.971 23.7595H306.852V86.002H311.971Z" fill="white"/>
<path d="M77.0922 55.0388L109.951 87.8977H98.3241C96.3652 87.8977 94.4063 87.0762 93.0161 85.686L62.4952 55.0388L93.1425 24.3283C94.5327 22.9381 96.4284 22.1166 98.4505 22.1798H109.951L77.0922 55.0388ZM16.8718 24.3283C15.4816 22.9381 13.5859 22.1166 11.5638 22.1798H0L32.859 55.0388L0 87.8977H11.627C13.5859 87.8977 15.5448 87.0762 16.935 85.686L47.5191 54.9756L16.8718 24.3283ZM54.9756 62.5584L24.2651 93.2057C22.8749 94.5959 22.1166 96.4916 22.1166 98.5137V110.077L54.9756 77.2185L87.8345 110.077V98.4505C87.8345 96.4916 87.0762 94.5327 85.686 93.1425L54.9756 62.5584ZM54.9756 47.5191L85.686 16.8718C87.0762 15.4816 87.8345 13.5859 87.8345 11.5638V0L54.9756 32.859L22.1166 0V11.5638C22.1166 13.5227 22.8749 15.4816 24.2651 16.8718L54.9756 47.5191Z" fill="white"/>
</svg>
