<svg width="601" height="63" viewBox="0 0 601 63" fill="none" xmlns="http://www.w3.org/2000/svg">
<path d="M173.9 59.6V8.50001H183.5L199.1 32.7L214.7 8.50001H224.3V59.6H215.3V23L199 47.1H198.7L182.7 23.2V59.7H173.9V59.6ZM247.2 60.4C240 60.4 233.5 56.2 233.5 48.5V48.4C233.5 40.1 240 36 249.4 36C253.7 36 256.8 36.7 259.8 37.6V36.7C259.8 31.2 256.4 28.3 250.2 28.3C245.9 28.3 242.7 29.2 239.2 30.7L236.9 23.8C241.1 21.9 245.3 20.7 251.4 20.7C257.2 20.7 261.5 22.2 264.2 25C267 27.8 268.4 31.9 268.4 36.9V59.8H259.8V55C257.2 57.9 253.1 60.4 247.2 60.4ZM249.7 54C255.5 54 260 50.6 260 45.7V43.1C257.7 42.2 254.7 41.6 251.2 41.6C245.5 41.6 242.1 44 242.1 48V48.1C242.2 51.9 245.5 54 249.7 54ZM291.4 60.3C284.9 60.3 280.3 57.5 280.3 49V28.7H275.4V21.1H280.3V10.5H289.1V21.1H299.5V28.7H289.1V47.6C289.1 51 290.9 52.4 293.8 52.4C295.8 52.4 297.5 52 299.3 51.1V58.3C297.2 59.6 294.8 60.3 291.4 60.3ZM308.4 59.6V6.3H317.2V27C319.7 23.4 323.3 20.3 329.2 20.3C337.9 20.3 342.9 26.1 342.9 35V59.6H334.1V37.7C334.1 31.7 331.1 28.3 325.8 28.3C320.7 28.3 317.1 31.9 317.1 37.9V59.7H308.4V59.6ZM390.2 60L372.4 8.50001H382.1L394.3 46.4L406.9 8.40001H414.5L427.1 46.4L439.3 8.50001H448.7L430.9 60H423.1L410.5 23.3L397.9 60H390.2ZM462.7 60.4C455.5 60.4 449 56.2 449 48.5V48.4C449 40.1 455.5 36 464.9 36C469.2 36 472.3 36.7 475.3 37.6V36.7C475.3 31.2 471.9 28.3 465.7 28.3C461.4 28.3 458.2 29.2 454.7 30.7L452.4 23.8C456.6 21.9 460.8 20.7 466.9 20.7C472.7 20.7 477 22.2 479.7 25C482.5 27.8 483.9 31.9 483.9 36.9V59.8H475.3V55C472.6 57.9 468.6 60.4 462.7 60.4ZM465.1 54C470.9 54 475.4 50.6 475.4 45.7V43.1C473.1 42.2 470.1 41.6 466.6 41.6C460.9 41.6 457.5 44 457.5 48V48.1C457.6 51.9 460.9 54 465.1 54ZM494.8 59.6V6.3H503.6V59.6H494.8ZM515.6 59.6V6.3H524.4V59.6H515.6ZM553.5 60.5C542.3 60.5 533.7 52.4 533.7 40.5V40.4C533.7 29.4 541.5 20.3 552.5 20.3C564.8 20.3 571 29.9 571 41C571 41.8 570.9 42.6 570.9 43.5H542.6C543.5 49.8 548 53.3 553.7 53.3C558 53.3 561.1 51.7 564.1 48.7L569.3 53.3C565.6 57.7 560.6 60.5 553.5 60.5ZM542.4 37.6H562.2C561.6 31.9 558.3 27.5 552.4 27.5C547 27.5 543.2 31.7 542.4 37.6ZM592.7 60.3C586.2 60.3 581.6 57.5 581.6 49V28.7H576.7V21.1H581.6V10.5H590.4V21.1H600.8V28.7H590.4V47.6C590.4 51 592.2 52.4 595.1 52.4C597.1 52.4 598.8 52 600.6 51.1V58.3C598.5 59.6 596.1 60.3 592.7 60.3ZM103.2 25.5C100.3 22.6 100.3 18 103.2 15.1C106.1 12.2 110.7 12.2 113.6 15.1C116.5 18 116.5 22.6 113.6 25.5C110.7 28.4 106.1 28.4 103.2 25.5ZM78.6001 50.2C76.5001 48.1 76.5001 44.6 78.6001 42.4C80.7001 40.3 84.2001 40.3 86.4001 42.4C88.5001 44.5 88.5001 48 86.4001 50.2C84.2001 52.3 80.7001 52.3 78.6001 50.2ZM117.5 37.2C115.4 35.1 115.4 31.6 117.5 29.4C119.6 27.3 123.1 27.3 125.3 29.4C127.4 31.5 127.4 35 125.3 37.2C123.1 39.4 119.6 39.4 117.5 37.2ZM104.5 50.2C102.4 48.1 102.4 44.6 104.5 42.4C106.6 40.3 110.1 40.3 112.3 42.4C114.4 44.5 114.4 48 112.3 50.2C110.1 52.3 106.7 52.3 104.5 50.2ZM131.8 48.9C130.4 47.5 130.4 45.1 131.8 43.7C133.2 42.3 135.6 42.3 137 43.7C138.4 45.1 138.4 47.5 137 48.9C135.5 50.3 133.2 50.3 131.8 48.9ZM118.8 61.9C117.4 60.5 117.4 58.1 118.8 56.7C120.2 55.3 122.6 55.3 124 56.7C125.4 58.1 125.4 60.5 124 61.9C122.5 63.3 120.2 63.3 118.8 61.9ZM90.2001 38.5C87.3001 35.6 87.3001 31 90.2001 28.1C93.1001 25.2 97.7001 25.2 100.6 28.1C103.5 31 103.5 35.6 100.6 38.5C97.8001 41.4 93.1001 41.4 90.2001 38.5ZM90.2001 12.6C87.3001 9.70002 87.3001 5.10002 90.2001 2.20002C93.1001 -0.699975 97.7001 -0.699975 100.6 2.20002C103.5 5.10002 103.5 9.70002 100.6 12.6C97.8001 15.4 93.1001 15.4 90.2001 12.6ZM77.3001 25.5C74.4001 22.6 74.4001 18 77.3001 15.1C80.2001 12.2 84.8001 12.2 87.7001 15.1C90.6001 18 90.6001 22.6 87.7001 25.5C84.8001 28.4 80.1001 28.4 77.3001 25.5ZM51.2001 25.5C48.3001 22.6 48.3001 18 51.2001 15.1C54.1001 12.2 58.7001 12.2 61.6001 15.1C64.5001 18 64.5001 22.6 61.6001 25.5C58.7001 28.4 54.1001 28.4 51.2001 25.5ZM26.5001 50.2C24.4001 48.1 24.4001 44.6 26.5001 42.4C28.6001 40.3 32.1001 40.3 34.3001 42.4C36.4001 44.5 36.4001 48 34.3001 50.2C32.2001 52.3 28.7001 52.3 26.5001 50.2ZM65.5001 37.2C63.4001 35.1 63.4001 31.6 65.5001 29.4C67.6001 27.3 71.1001 27.3 73.3001 29.4C75.4001 31.5 75.4001 35 73.3001 37.2C71.1001 39.4 67.6001 39.4 65.5001 37.2ZM52.5001 50.2C50.4001 48.1 50.4001 44.6 52.5001 42.4C54.6001 40.3 58.1001 40.3 60.3001 42.4C62.4001 44.5 62.4001 48 60.3001 50.2C58.1001 52.3 54.6001 52.3 52.5001 50.2ZM1.9001 48.9C0.500098 47.5 0.500098 45.1 1.9001 43.7C3.3001 42.3 5.7001 42.3 7.1001 43.7C8.5001 45.1 8.5001 47.5 7.1001 48.9C5.6001 50.3 3.3001 50.3 1.9001 48.9ZM14.9001 61.9C13.5001 60.5 13.5001 58.1 14.9001 56.7C16.3001 55.3 18.7001 55.3 20.1001 56.7C21.5001 58.1 21.5001 60.5 20.1001 61.9C18.6001 63.3 16.3001 63.3 14.9001 61.9ZM66.8001 61.9C65.4001 60.5 65.4001 58.1 66.8001 56.7C68.2001 55.3 70.6001 55.3 72.0001 56.7C73.4001 58.1 73.4001 60.5 72.0001 61.9C70.5001 63.3 68.2001 63.3 66.8001 61.9ZM13.6001 37.2C11.5001 35.1 11.5001 31.6 13.6001 29.4C15.7001 27.3 19.2001 27.3 21.4001 29.4C23.5001 31.5 23.5001 35 21.4001 37.2C19.2001 39.4 15.7001 39.4 13.6001 37.2ZM38.2001 38.5C35.3001 35.6 35.3001 31 38.2001 28.1C41.1001 25.2 45.7001 25.2 48.6001 28.1C51.5001 31 51.5001 35.6 48.6001 38.5C45.7001 41.4 41.1001 41.4 38.2001 38.5ZM38.2001 12.6C35.3001 9.70002 35.3001 5.10002 38.2001 2.20002C41.1001 -0.699975 45.7001 -0.699975 48.6001 2.20002C51.5001 5.10002 51.5001 9.70002 48.6001 12.6C45.7001 15.4 41.1001 15.4 38.2001 12.6ZM25.2001 25.5C22.3001 22.6 22.3001 18 25.2001 15.1C28.1001 12.2 32.7001 12.2 35.6001 15.1C38.5001 18 38.5001 22.6 35.6001 25.5C32.8001 28.4 28.1001 28.4 25.2001 25.5Z" fill="white"/>
</svg>
