<svg width="601" height="109" viewBox="0 0 601 109" fill="none" xmlns="http://www.w3.org/2000/svg">
<path d="M182.7 24.9L202.4 83.7H191.5L187.4 70.7H167.1L163.1 83.7H152.2L171.9 24.9H182.7ZM170 60.9H184.3L177 38.2L170 60.9ZM210.5 83.6V25H235.4C245.5 25 251.6 31.2 251.6 37.9V50.3C251.6 55 248.4 59.5 243 61.7L252.9 83.5H241.5L232.2 63H221.4V83.5H210.5V83.6ZM221.5 34.8V53.5H234.6C238.1 53.5 240.9 51.5 240.9 48.1V40.4C240.9 36.8 237.9 34.9 234.1 34.9H221.5V34.8ZM273.2 83.6V34.6H258.7V25H297.4V34.6H284V83.6H273.2ZM310.4 66.9V70.7C310.4 75.9 315.2 79.8 321.5 79.8H328.4C334.9 79.8 339.8 76.7 339.8 71.3V67.2C339.8 58.2 307.4 56.5 307.4 41V35.7C307.4 29.8 313 24.6 320.5 24.6H328.2C336.6 24.6 342.8 30.2 342.8 36.6V41.9H338V37.5C338 32.7 333.5 29 327.9 29H321.2C316.2 29 312.2 32.2 312.2 36.5V40.8C312.2 52.3 344.6 53.8 344.6 66.5V72.1C344.6 79.5 337.8 84.1 328.7 84.1H321.2C312.1 84.1 305.4 78.2 305.4 71.4V66.9H310.4ZM368.9 83.6V29.3H352.5V25H389.4V29.3H373.7V83.6H368.9ZM415.5 24.8L436.1 83.7H431.3L424.7 64.9H401.3L394.8 83.7H389.8L410.5 24.8H415.5ZM402.8 60.5H423.2L413.1 31L402.8 60.5ZM453.3 83.6V29.3H436.9V25H473.8V29.3H458.1V83.6H453.3ZM484.6 83.6V25.1H489.4V83.6H484.6ZM519.5 84.1C511.4 84.1 505.7 78.2 505.7 71.4V37.3C505.7 30.5 511.6 24.6 519.5 24.6H531.1C539 24.6 544.8 30.5 544.8 37.3V71.4C544.8 78.2 539 84.1 531.1 84.1H519.5ZM530.7 79.7C535.9 79.7 540 75.8 540 70.6V38.1C540 32.9 535.9 29 530.7 29H519.8C514.6 29 510.5 32.9 510.5 38.1V70.7C510.5 75.9 514.6 79.8 519.8 79.8H530.7V79.7ZM561.1 83.6V25.1H566.2L595.6 75.1V25H600.4V83.5H595.3L565.9 33.5V83.5H561.1V83.6Z" fill="white"/>
<path d="M0.399902 83.6L10.6999 101.3C12.7999 105.3 16.8999 108.1 21.5999 108.1H89.8999L75.7999 83.6H0.399902ZM122.3 83.8C122.3 81.4 121.6 79.1 120.3 77.1L80.1999 7.50003C78.0999 3.60003 74.0999 0.900024 69.3999 0.900024H48.1999L110.1 108L119.9 91.1C121.7 87.9 122.3 86.5 122.3 83.8ZM65.6999 66.1L38.0999 18.3L10.4999 66.1H65.6999Z" fill="white"/>
</svg>
