<svg width="800" height="144" viewBox="0 0 800 144" fill="none" xmlns="http://www.w3.org/2000/svg">
<path d="M161.467 40.4333C132.4 40.4333 109.7 62.5 109.7 92.0333C109.7 121.567 131.833 143.433 161.467 143.433C191.1 143.433 213.6 121.2 213.6 91.8666C213.6 62.7 191.467 40.4333 161.467 40.4333ZM161.667 122.167C145.1 122.167 133 109.3 133 92.0333C133 74.6 144.9 61.7333 161.467 61.7333C178.2 61.7333 190.333 74.8 190.333 92.0667C190.333 109.3 178.2 122.167 161.667 122.167ZM219.967 62.9H234.4V141.567H257.5V42.3333H219.967V62.9ZM51.5667 61.7333C63.7 61.7333 73.3333 69.2 76.9667 80.3333H101.433C97 56.5667 77.3667 40.4333 51.7667 40.4333C22.7 40.4333 0 62.5 0 92.0333C0 121.6 22.1333 143.467 51.7667 143.467C76.7667 143.467 96.8 127.333 101.233 103.367H76.9667C75.3947 108.822 72.0806 113.613 67.5302 117.007C62.9799 120.402 57.4436 122.214 51.7667 122.167C35.0333 122.167 23.2667 109.3 23.2667 92.0333C23.2667 74.6 34.8 61.7333 51.5667 61.7333ZM658.733 82.4667L641.8 79.9667C633.733 78.8 627.967 76.1333 627.967 69.8C627.967 62.9 635.467 59.4666 645.633 59.4666C656.833 59.4666 663.967 64.2333 665.467 72.1H687.8C685.3 52.1333 669.9 40.4333 646.233 40.4333C621.8 40.4333 605.633 52.9333 605.633 70.5667C605.633 87.4333 616.2 97.2333 637.567 100.3L654.5 102.8C662.8 103.933 667.4 107.2 667.4 113.333C667.4 121.2 659.333 124.467 648.167 124.467C634.5 124.467 626.8 118.9 625.633 110.467H602.933C605.067 129.833 620.267 143.467 647.933 143.467C673.167 143.467 689.933 131.933 689.933 112.2C689.933 94.5333 677.8 85.3333 658.733 82.4667ZM245.933 1.5C243.991 1.43169 242.055 1.75999 240.244 2.46483C238.433 3.16968 236.785 4.23626 235.4 5.5995C234.015 6.96273 232.922 8.59399 232.188 10.3936C231.455 12.1933 231.096 14.1236 231.133 16.0666C231.133 24.5333 237.467 30.6667 245.933 30.6667C247.881 30.7398 249.823 30.414 251.641 29.7092C253.458 29.0044 255.112 27.9355 256.501 26.5682C257.89 25.2009 258.985 23.564 259.719 21.7581C260.452 19.9522 260.809 18.0154 260.767 16.0666C260.804 14.1207 260.444 12.1875 259.709 10.3856C258.973 8.5836 257.878 6.95076 256.489 5.58704C255.1 4.22332 253.448 3.15743 251.633 2.45466C249.818 1.7519 247.878 1.42705 245.933 1.5ZM584.833 76.3333C584.833 54.8333 571.767 40.4667 544.033 40.4667C517.867 40.4667 503.233 53.7 500.367 74.0333H523.267C524.433 66.1667 530.6 59.6333 543.667 59.6333C555.4 59.6333 561.167 64.8 561.167 71.1333C561.167 79.4 550.6 81.5 537.5 82.8333C519.8 84.7667 497.833 90.9 497.833 113.933C497.833 131.767 511.167 143.267 532.3 143.267C548.867 143.267 559.267 136.367 564.467 125.433C565.233 135.2 572.533 141.533 582.733 141.533H596.2V121H584.867L584.833 76.3333ZM562.167 101.267C562.167 114.5 550.6 124.267 536.533 124.267C527.867 124.267 520.533 120.6 520.533 112.933C520.533 103.167 532.3 100.5 543.067 99.3333C553.467 98.4 559.233 96.1 562.133 91.6667L562.167 101.267ZM439.533 40.4333C426.667 40.4333 415.867 45.8333 408.2 54.8333V0.533325H385.1V141.533H407.767V128.5C415.5 137.9 426.433 143.467 439.533 143.467C467.267 143.467 488.233 121.6 488.233 92.0333C488.233 62.5 466.9 40.4333 439.567 40.4333H439.533ZM436.1 122.167C419.533 122.167 407.433 109.3 407.433 92.0333C407.433 74.8 419.733 61.7333 436.267 61.7333C453.033 61.7333 464.767 74.6 464.767 92.0667C464.767 109.3 452.633 122.167 436.1 122.167ZM329.867 40.4333C314.867 40.4333 305.033 46.5667 299.233 55.2V42.3667H276.333V141.533H299.433V87.6333C299.433 72.4667 309.067 61.7333 323.3 61.7333C336.567 61.7333 344.867 71.1333 344.867 84.7333V141.533H367.933V83.0333C367.933 58.1 355.067 40.4333 329.867 40.4333ZM800 88.7667C800 60.4 779.2 40.4333 751.333 40.4333C721.667 40.4333 699.933 62.7 699.933 92.0333C699.933 122.933 723.2 143.467 751.7 143.467C775.767 143.467 794.6 129.267 799.433 109.133H775.367C771.9 117.933 763.433 122.933 752.067 122.933C737.233 122.933 726.067 113.733 723.6 97.6H800V88.7667ZM724.933 81.1C728.6 67.3 739 60.6 750.933 60.6C764 60.6 774.033 68.0666 776.333 81.1H724.933Z" fill="white"/>
</svg>
