<svg width="1280" height="340" viewBox="0 0 1280 340" fill="none" xmlns="http://www.w3.org/2000/svg">
<path d="M409.3 67.8614C406.666 67.8614 404.428 69.7738 404.016 72.3779L373.523 265.757C373.412 266.464 373.456 267.186 373.651 267.874C373.846 268.562 374.187 269.199 374.652 269.743C375.117 270.286 375.693 270.722 376.343 271.021C376.992 271.321 377.699 271.476 378.414 271.476H414.576C417.207 271.476 419.448 269.559 419.86 266.959L428.818 210.172C429.226 207.571 431.467 205.655 434.101 205.655H466.979C505.395 205.655 538.004 177.626 543.961 139.646C549.967 101.344 520.044 67.9445 477.634 67.8614H409.3ZM444.454 111.031H470.759C492.416 111.031 499.468 123.81 497.238 137.941C495.009 152.103 484.055 162.535 463.106 162.535H436.331L444.454 111.031ZM617.51 124.176C608.379 124.21 597.872 126.081 586.076 130.995C559.019 142.273 546.025 165.581 540.506 182.574C540.506 182.574 522.943 234.417 562.624 262.9C562.624 262.9 599.425 290.32 640.853 261.21L640.138 265.757C640.028 266.463 640.071 267.184 640.265 267.872C640.46 268.559 640.801 269.196 641.265 269.74C641.728 270.283 642.304 270.719 642.953 271.019C643.601 271.319 644.307 271.474 645.021 271.476H679.351C681.985 271.476 684.223 269.559 684.635 266.959L705.517 134.532C705.629 133.826 705.586 133.104 705.392 132.415C705.198 131.727 704.858 131.089 704.394 130.545C703.93 130 703.353 129.563 702.704 129.263C702.055 128.963 701.349 128.807 700.634 128.806H666.304C663.67 128.806 661.428 130.722 661.02 133.323L659.898 140.451C659.898 140.451 644.908 124.074 617.51 124.176ZM618.633 166.004C622.575 166.004 626.181 166.549 629.416 167.588C644.228 172.343 652.626 186.572 650.196 201.997C647.199 220.989 631.623 234.973 611.648 234.973C607.71 234.973 604.104 234.433 600.865 233.393C586.057 228.639 577.606 214.409 580.036 198.984C583.034 179.992 598.658 166.004 618.633 166.004Z" fill="#A1A1A1"/>
<path d="M903.662 67.8614C901.027 67.8614 898.79 69.7738 898.378 72.3779L867.885 265.757C867.774 266.464 867.817 267.186 868.012 267.874C868.207 268.562 868.549 269.199 869.013 269.743C869.478 270.286 870.055 270.722 870.705 271.021C871.354 271.321 872.06 271.476 872.775 271.476H908.938C911.568 271.476 913.81 269.559 914.222 266.959L923.179 210.172C923.587 207.571 925.829 205.655 928.463 205.655H961.341C999.756 205.655 1032.36 177.626 1038.31 139.646C1044.32 101.344 1014.41 67.9445 971.996 67.8614H903.662ZM938.815 111.031H965.121C986.777 111.031 993.83 123.81 991.6 137.941C989.37 152.103 978.421 162.535 957.467 162.535H930.693L938.815 111.031ZM1111.87 124.176C1102.74 124.21 1092.23 126.081 1080.43 130.995C1053.38 142.273 1040.38 165.581 1034.86 182.574C1034.86 182.574 1017.31 234.417 1056.99 262.9C1056.99 262.9 1093.78 290.32 1135.21 261.21L1134.5 265.757C1134.39 266.464 1134.43 267.186 1134.63 267.874C1134.82 268.562 1135.16 269.199 1135.63 269.743C1136.09 270.286 1136.67 270.722 1137.32 271.021C1137.97 271.321 1138.68 271.476 1139.39 271.476H1173.72C1176.35 271.476 1178.59 269.559 1179 266.959L1199.89 134.532C1200 133.825 1199.96 133.102 1199.76 132.413C1199.57 131.725 1199.23 131.086 1198.76 130.542C1198.3 129.997 1197.72 129.56 1197.07 129.261C1196.42 128.961 1195.71 128.806 1195 128.806H1160.67C1158.04 128.806 1155.79 130.722 1155.39 133.323L1154.26 140.451C1154.26 140.451 1139.27 124.074 1111.87 124.176ZM1112.99 166.004C1116.93 166.004 1120.54 166.549 1123.77 167.588C1138.59 172.343 1146.98 186.572 1144.55 201.997C1141.56 220.989 1125.98 234.973 1106.01 234.973C1102.07 234.973 1098.46 234.433 1095.22 233.393C1080.42 228.639 1071.96 214.409 1074.39 198.984C1077.39 179.992 1093.02 166.004 1112.99 166.004Z" fill="white"/>
<path d="M721.806 128.806C719.085 128.806 717.15 131.463 717.981 134.052L755.618 250.843L721.587 305.881C719.935 308.553 721.855 312.003 724.996 312.003H765.218C766.368 312.002 767.499 311.705 768.5 311.14C769.502 310.574 770.341 309.76 770.936 308.776L876.049 134.891C877.663 132.219 875.735 128.802 872.613 128.802H832.395C831.234 128.803 830.092 129.107 829.084 129.683C828.075 130.259 827.234 131.087 826.643 132.087L785.268 201.94L764.266 132.605C763.581 130.348 761.499 128.802 759.144 128.802L721.806 128.806Z" fill="#A1A1A1"/>
<path d="M1238.89 67.8614C1236.26 67.8614 1234.02 69.7776 1233.61 72.3779L1203.11 265.75C1203 266.457 1203.04 267.179 1203.23 267.868C1203.43 268.557 1203.77 269.196 1204.24 269.74C1204.7 270.284 1205.28 270.721 1205.93 271.021C1206.58 271.321 1207.28 271.476 1208 271.476H1244.16C1246.79 271.476 1249.03 269.559 1249.45 266.959L1279.94 73.5798C1280.05 72.874 1280.01 72.1527 1279.81 71.4652C1279.62 70.7778 1279.28 70.1406 1278.81 69.5973C1278.35 69.054 1277.77 68.6176 1277.13 68.318C1276.48 68.0183 1275.77 67.8625 1275.06 67.8614H1238.89Z" fill="white"/>
<path d="M107.823 67.8614C105.493 67.8633 103.241 68.6959 101.47 70.2096C99.6994 71.7232 98.5263 73.8188 98.162 76.1196L82.1106 177.925C82.8589 173.17 86.9558 169.667 91.7709 169.667H138.807C186.146 169.667 226.314 135.133 233.654 88.335C234.2 84.8412 234.51 81.3144 234.58 77.7788C222.55 71.4708 208.418 67.8614 192.934 67.8614H107.823Z" fill="#757575"/>
<path d="M234.58 77.7826C234.51 81.3182 234.2 84.845 233.654 88.3388C226.314 135.137 186.142 169.67 138.807 169.67H91.7709C86.9595 169.67 82.8589 173.17 82.1105 177.929L67.3514 271.479L58.1067 330.168C57.9263 331.302 57.9939 332.461 58.3051 333.566C58.6163 334.672 59.1637 335.696 59.9093 336.569C60.6548 337.442 61.5809 338.143 62.6237 338.624C63.6665 339.104 64.8011 339.353 65.9493 339.352H117.003C119.333 339.35 121.585 338.518 123.356 337.004C125.126 335.49 126.299 333.395 126.663 331.094L140.111 245.801C140.475 243.499 141.649 241.403 143.422 239.889C145.194 238.375 147.448 237.543 149.779 237.543H179.838C227.176 237.543 267.345 203.01 274.685 156.211C279.897 122.997 263.169 92.7722 234.58 77.7826Z" fill="white"/>
<path d="M49.822 0C45.0107 0 40.91 3.49984 40.1617 8.2507L0.0986011 262.295C-0.661083 267.118 3.06563 271.479 7.94877 271.479H67.3591L82.1106 177.929L98.1621 76.1234C98.5263 73.8225 99.6994 71.727 101.47 70.2133C103.241 68.6997 105.493 67.8671 107.823 67.8651H192.934C208.422 67.8651 222.55 71.4784 234.58 77.7826C235.404 35.176 200.247 0 151.911 0H49.822Z" fill="#A1A1A1"/>
</svg>
