<svg width="166" height="32" viewBox="0 0 166 32" fill="none" xmlns="http://www.w3.org/2000/svg">
<g clip-path="url(#clip0_53_134)">
<path d="M145.4 15.8C144.5 15.2 143.5 14.8 142.6 14.3C142 14 141.4 13.7 140.8 13.2C139.9 12.5 140.1 11 141 10.4C142.3 9.50002 144.5 10 144.8 11.8C144.8 11.8 144.8 11.9 144.9 11.9H146.9C147 11.9 147 11.9 147 11.8C146.9 10.6 146.4 9.50002 145.5 8.90002C144.7 8.30002 143.7 7.90002 142.7 7.90002C137.4 7.90002 136.9 13.5 139.8 15.2C140.1 15.4 142.9 16.8 143.9 17.4C144.9 18 145.2 19.1 144.8 20C144.4 20.8 143.4 21.4 142.4 21.3C141.3 21.2 140.4 20.6 140.1 19.7C140 19.5 140 19.2 140 19.1C140 19.1 140 19 139.9 19H137.7C137.7 19 137.6 19 137.6 19.1C137.6 20.7 138 21.5 139.1 22.3C140.1 23.1 141.2 23.4 142.3 23.4C145.3 23.4 146.8 21.7 147.1 20C147.4 18.3 146.9 16.8 145.4 15.8Z" fill="white"/>
<path d="M51.1999 8.19998H50.1999H49.0999C49.0999 8.19998 48.9999 8.19998 48.9999 8.29998L47.1999 14.2C47.1999 14.3 47.0999 14.3 46.9999 14.2L45.1999 8.29998C45.1999 8.29998 45.1999 8.19998 45.0999 8.19998H43.9999H42.9999H41.9999C41.9999 8.19998 41.8999 8.19998 41.8999 8.29998V23.3C41.8999 23.3 41.8999 23.4 41.9999 23.4H44.1999C44.1999 23.4 44.2999 23.4 44.2999 23.3V11.8C44.2999 11.7 44.3999 11.7 44.4999 11.8L46.2999 17.7L46.3999 18.1C46.3999 18.1 46.3999 18.2 46.4999 18.2H48.1999C48.1999 18.2 48.2999 18.2 48.2999 18.1L48.3999 17.7L50.1999 11.8C50.1999 11.7 50.3999 11.7 50.3999 11.8V23.2C50.3999 23.2 50.3999 23.3 50.4999 23.3H52.6999C52.6999 23.3 52.7999 23.3 52.7999 23.2V8.19998C52.7999 8.19998 52.7999 8.09998 52.6999 8.09998H51.1999V8.19998Z" fill="white"/>
<path d="M112.2 8.19998C112.1 8.19998 112.1 8.19998 112.2 8.19998L110.3 14.1C110.3 14.2 110.2 14.2 110.1 14.1L108.3 8.19998C108.3 8.19998 108.3 8.09998 108.2 8.09998H105C105 8.09998 104.9 8.09998 104.9 8.19998V23.2C104.9 23.2 104.9 23.3 105 23.3H107.2C107.2 23.3 107.3 23.3 107.3 23.2V11.8C107.3 11.7 107.4 11.7 107.5 11.8L109.3 17.7L109.4 18.1C109.4 18.1 109.4 18.2 109.5 18.2H111.2C111.2 18.2 111.3 18.2 111.3 18.1L111.4 17.7L113.2 11.8C113.2 11.7 113.4 11.7 113.4 11.8V23.2C113.4 23.2 113.4 23.3 113.5 23.3H115.7C115.7 23.3 115.8 23.3 115.8 23.2V8.19998C115.8 8.19998 115.8 8.09998 115.7 8.09998H112.2V8.19998Z" fill="white"/>
<path d="M84.1999 8.20001H80.1999H77.9999H73.9999C73.9999 8.20001 73.8999 8.20001 73.8999 8.30001V10.2C73.8999 10.2 73.8999 10.3 73.9999 10.3H77.9999V23.3C77.9999 23.3 77.9999 23.4 78.0999 23.4H80.2999C80.2999 23.4 80.3999 23.4 80.3999 23.3V10.3H84.3999C84.3999 10.3 84.4999 10.3 84.4999 10.2L84.1999 8.20001Z" fill="white"/>
<path d="M97 23.3H99C99.1 23.3 99.1 23.2 99.1 23.2L95 8.19998C95 8.19998 95 8.09998 94.9 8.09998H94.1H92.8H92C92 8.09998 91.9 8.09998 91.9 8.19998L87.8 23.2C87.8 23.3 87.8 23.3 87.9 23.3H89.9C89.9 23.3 90 23.3 90 23.2L91.2 18.8C91.2 18.8 91.2 18.7 91.3 18.7H95.7C95.7 18.7 95.8 18.7 95.8 18.8L97 23.3C96.9 23.3 96.9 23.3 97 23.3ZM91.8 16.7L93.4 10.9C93.4 10.8 93.5 10.8 93.6 10.9L95.2 16.7C95.2 16.8 95.2 16.8 95.1 16.8H91.9C91.8 16.8 91.8 16.7 91.8 16.7Z" fill="white"/>
<path d="M130.6 23.3H132.6C132.7 23.3 132.7 23.2 132.7 23.2L128.6 8.19998C128.6 8.19998 128.6 8.09998 128.5 8.09998H127.7H126.4H125.6C125.6 8.09998 125.5 8.09998 125.5 8.19998L121.4 23.2C121.4 23.3 121.4 23.3 121.5 23.3H123.5C123.5 23.3 123.6 23.3 123.6 23.2L124.8 18.8C124.8 18.8 124.8 18.7 124.9 18.7H129.3C129.3 18.7 129.4 18.7 129.4 18.8L130.6 23.3ZM125.5 16.7L127.1 10.9C127.1 10.8 127.2 10.8 127.3 10.9L128.9 16.7C128.9 16.8 128.9 16.8 128.8 16.8H125.6C125.5 16.8 125.5 16.7 125.5 16.7Z" fill="white"/>
<path d="M61.3 21.1V16.5C61.3 16.5 61.3 16.4 61.4 16.4H67.2C67.2 16.4 67.3 16.4 67.3 16.3V14.4C67.3 14.4 67.3 14.3 67.2 14.3H61.4C61.4 14.3 61.3 14.3 61.3 14.2V10.2C61.3 10.2 61.3 10.1 61.4 10.1H68C68 10.1 68.1 10.1 68.1 10V8.30001C68.1 8.30001 68.1 8.20001 68 8.20001H61.3H59.1C59.1 8.20001 59 8.20001 59 8.30001V10.2V14.3V16.3V21.1V23.1C59 23.1 59 23.2 59.1 23.2H61.3H68.2C68.2 23.2 68.3 23.2 68.3 23.1V21.1C68.3 21.1 68.3 21 68.2 21L61.3 21.1Z" fill="white"/>
<path d="M165.2 23.2L157.7 15.5V15.4L164.5 8.40001C164.6 8.30001 164.5 8.30001 164.4 8.30001H161.6C161.6 8.30001 161.6 8.30001 161.5 8.30001L155.8 14.2C155.7 14.3 155.7 14.2 155.7 14.1V8.30001C155.7 8.30001 155.7 8.20001 155.6 8.20001H153.4C153.4 8.20001 153.3 8.20001 153.3 8.30001V23.3C153.3 23.3 153.3 23.4 153.4 23.4H155.6C155.6 23.4 155.7 23.4 155.7 23.3V16.7C155.7 16.6 155.8 16.6 155.8 16.6L162.3 23.3C162.3 23.3 162.3 23.3 162.4 23.3H165.2C165.2 23.3 165.3 23.2 165.2 23.2Z" fill="white"/>
<path d="M32.0999 0.0999756L18.8999 9.79998L21.2999 4.09998L32.0999 0.0999756Z" fill="#656565" stroke="#656565" stroke-width="0.25" stroke-linecap="round" stroke-linejoin="round"/>
<path d="M1.80005 0.0999756L14.8 9.89997L12.5 4.09998L1.80005 0.0999756Z" fill="white" stroke="white" stroke-width="0.25" stroke-linecap="round" stroke-linejoin="round"/>
<path d="M27.3999 22.7L23.8999 28L31.3999 30.1L33.4999 22.8L27.3999 22.7Z" fill="white" stroke="white" stroke-width="0.25" stroke-linecap="round" stroke-linejoin="round"/>
<path d="M0.399902 22.8L2.4999 30.1L9.9999 28L6.4999 22.7L0.399902 22.8Z" fill="white" stroke="white" stroke-width="0.25" stroke-linecap="round" stroke-linejoin="round"/>
<path d="M9.6 13.6L7.5 16.7L14.9 17L14.7 9L9.6 13.6Z" fill="white" stroke="white" stroke-width="0.25" stroke-linecap="round" stroke-linejoin="round"/>
<path d="M24.2999 13.6L19.0999 9L18.8999 17.1L26.2999 16.8L24.2999 13.6Z" fill="white" stroke="white" stroke-width="0.25" stroke-linecap="round" stroke-linejoin="round"/>
<path d="M10 28L14.5 25.8L10.6 22.8L10 28Z" fill="white" stroke="white" stroke-width="0.25" stroke-linecap="round" stroke-linejoin="round"/>
<path d="M19.3999 25.8L23.8999 28L23.2999 22.8L19.3999 25.8Z" fill="white" stroke="white" stroke-width="0.25" stroke-linecap="round" stroke-linejoin="round"/>
<path d="M23.8999 28L19.3999 25.8L19.7999 28.7V29.9L23.8999 28Z" fill="#747474" stroke="#747474" stroke-width="0.25" stroke-linecap="round" stroke-linejoin="round"/>
<path d="M10 28L14.2 30V28.8L14.6 25.9L10 28Z" fill="#747474" stroke="#747474" stroke-width="0.25" stroke-linecap="round" stroke-linejoin="round"/>
<path d="M14.2 20.9L10.5 19.8L13.1 18.6L14.2 20.9Z" fill="#595959" stroke="#595959" stroke-width="0.25" stroke-linecap="round" stroke-linejoin="round"/>
<path d="M19.6001 20.9L20.7001 18.6L23.3001 19.8L19.6001 20.9Z" fill="#595959" stroke="#595959" stroke-width="0.25" stroke-linecap="round" stroke-linejoin="round"/>
<path d="M10 28L10.6 22.7L6.5 22.8L10 28Z" fill="#CECECE" stroke="#CECECE" stroke-width="0.25" stroke-linecap="round" stroke-linejoin="round"/>
<path d="M23.2 22.7L23.7999 28L27.2999 22.8L23.2 22.7Z" fill="#CECECE" stroke="#CECECE" stroke-width="0.25" stroke-linecap="round" stroke-linejoin="round"/>
<path d="M26.4 16.8L19 17.1L19.7 20.9L20.8 18.6L23.4 19.8L26.4 16.8Z" fill="#CECECE" stroke="#CECECE" stroke-width="0.25" stroke-linecap="round" stroke-linejoin="round"/>
<path d="M10.5 19.8L13.1 18.6L14.2 20.9L14.9 17.1L7.5 16.8L10.5 19.8Z" fill="#CECECE" stroke="#CECECE" stroke-width="0.25" stroke-linecap="round" stroke-linejoin="round"/>
<path d="M7.5 16.8L10.6 22.9L10.5 19.9L7.5 16.8Z" fill="#EBEBEB" stroke="#EBEBEB" stroke-width="0.25" stroke-linecap="round" stroke-linejoin="round"/>
<path d="M23.4 19.8L23.3 22.8L26.4 16.7L23.4 19.8Z" fill="#EBEBEB" stroke="#EBEBEB" stroke-width="0.25" stroke-linecap="round" stroke-linejoin="round"/>
<path d="M14.9 17.1L14.2 20.9L15.1 25.4L15.3 19.5L14.9 17.1Z" fill="#EBEBEB" stroke="#EBEBEB" stroke-width="0.25" stroke-linecap="round" stroke-linejoin="round"/>
<path d="M18.9 17.1L18.5 19.5L18.7 25.4L19.6 20.9L18.9 17.1Z" fill="#EBEBEB" stroke="#EBEBEB" stroke-width="0.25" stroke-linecap="round" stroke-linejoin="round"/>
<path d="M19.6 20.9L18.7 25.4L19.2999 25.8L23.2 22.8L23.2999 19.8L19.6 20.9Z" fill="#D1D1D1" stroke="#D1D1D1" stroke-width="0.25" stroke-linecap="round" stroke-linejoin="round"/>
<path d="M10.5 19.8L10.6 22.8L14.5 25.8L15.1 25.4L14.2 20.9L10.5 19.8Z" fill="#D1D1D1" stroke="#D1D1D1" stroke-width="0.25" stroke-linecap="round" stroke-linejoin="round"/>
<path d="M19.7 30V28.8L19.4 28.5H14.4L14.1 28.8V30L10 28L11.5 29.2L14.4 31.2H19.5L22.5 29.2L23.9 28L19.7 30Z" fill="#C0AC9D" stroke="#C0AC9D" stroke-width="0.25" stroke-linecap="round" stroke-linejoin="round"/>
<path d="M19.4001 25.8L18.8001 25.4H15.1001L14.5001 25.8L14.1001 28.7L14.4001 28.4H19.4001L19.7001 28.7L19.4001 25.8Z" fill="white" stroke="white" stroke-width="0.25" stroke-linecap="round" stroke-linejoin="round"/>
<path d="M32.5999 10.5L33.6999 5.09998L31.9999 0.0999756L19.3999 9.49998L24.2999 13.6L31.1999 15.6L32.6999 13.8L31.9999 13.4L33.0999 12.4L32.2999 11.8L33.3999 11L32.5999 10.5Z" fill="#8E8E8E" stroke="#8E8E8E" stroke-width="0.25" stroke-linecap="round" stroke-linejoin="round"/>
<path d="M0.100098 5.09998L1.2001 10.5L0.500098 11L1.6001 11.8L0.800098 12.4L1.9001 13.4L1.2001 13.9L2.7001 15.7L9.6001 13.7L14.5001 9.59998L1.8001 0.0999756L0.100098 5.09998Z" fill="#8E8E8E" stroke="#8E8E8E" stroke-width="0.25" stroke-linecap="round" stroke-linejoin="round"/>
<path d="M31.2001 15.6L24.3 13.6L26.4 16.7L23.3 22.8L27.4 22.7H33.5L31.2001 15.6Z" fill="#D1D1D1" stroke="#D1D1D1" stroke-width="0.25" stroke-linecap="round" stroke-linejoin="round"/>
<path d="M9.5999 13.6L2.6999 15.6L0.399902 22.7H6.4999L10.5999 22.8L7.4999 16.7L9.5999 13.6Z" fill="#D1D1D1" stroke="#D1D1D1" stroke-width="0.25" stroke-linecap="round" stroke-linejoin="round"/>
<path d="M18.8999 17.1L19.2999 9.49998L21.2999 4.09998H12.3999L14.3999 9.49998L14.7999 17.1L14.9999 19.5V25.4H18.6999V19.5L18.8999 17.1Z" fill="#D1D1D1" stroke="#D1D1D1" stroke-width="0.25" stroke-linecap="round" stroke-linejoin="round"/>
</g>
<defs>
<clipPath id="clip0_53_134">
<rect width="165.2" height="31.3" fill="white"/>
</clipPath>
</defs>
</svg>
